<?xml version="1.0" standalone="no"?><!DOCTYPE svg PUBLIC "-//W3C//DTD SVG 1.1//EN" "http://www.w3.org/Graphics/SVG/1.1/DTD/svg11.dtd"><svg t="1645272588621" class="icon" viewBox="0 0 1024 1024" version="1.1" xmlns="http://www.w3.org/2000/svg" p-id="38106" xmlns:xlink="http://www.w3.org/1999/xlink" width="48" height="48"><defs><style type="text/css"></style></defs><path d="M854.596267 539.3408c-32.017067 29.525333-151.2448 130.696533-288.597334 133.597867a274.193067 274.193067 0 0 1-140.322133-26.897067l39.936-147.694933s2.628267-11.127467-7.236267-6.485334L139.946667 640.273067a5.154133 5.154133 0 0 0-2.1504 8.192c3.413333 5.2224 168.994133 259.413333 197.7344 303.2064 2.696533 4.1984 4.949333 3.822933 6.314666-0.648534 7.406933-23.893333 31.5392-101.546667 41.608534-137.181866 337.066667 61.44 454.7584-212.821333 475.8528-271.6672 2.594133-6.9632 0.853333-7.9872-4.7104-2.833067z m31.9488-164.9664L689.493333 71.953067s-6.587733-8.021333-10.001066 1.536c-8.6016 27.886933-31.266133 100.625067-40.96 134.9632-336.008533-61.201067-457.079467 206.609067-481.28 272.349866-3.413333 9.0112-0.7168 9.8304 7.236266 2.730667 37.000533-33.553067 154.487467-129.365333 289.109334-132.3008a280.200533 280.200533 0 0 1 142.370133 27.306667l-41.2672 152.132266s-2.628267 9.728 7.338667 4.573867c52.906667-26.9312 312.695467-145.373867 321.4336-149.879467a8.533333 8.533333 0 0 0 3.072-10.990933z" fill="#1296db" p-id="38107"></path></svg>