<?xml version="1.0" standalone="no"?><!DOCTYPE svg PUBLIC "-//W3C//DTD SVG 1.1//EN" "http://www.w3.org/Graphics/SVG/1.1/DTD/svg11.dtd"><svg t="1658798777546" class="icon" viewBox="0 0 1170 1024" version="1.1" xmlns="http://www.w3.org/2000/svg" p-id="6757" xmlns:xlink="http://www.w3.org/1999/xlink" width="146.25" height="128"><defs><style type="text/css"></style></defs><path d="M1053.257143 1012.911543H117.028571c-64.365714 0-117.028571-52.662857-117.028571-117.028572V135.197257c0-64.365714 52.662857-117.028571 117.028571-117.028571h936.228572c64.365714 0 117.028571 52.662857 117.028571 117.028571v760.685714c0 64.365714-52.662857 117.028571-117.028571 117.028572z" fill="#F57C00" p-id="6758"></path><path d="M906.971429 281.482971m-87.771429 0a87.771429 87.771429 0 1 0 175.542857 0 87.771429 87.771429 0 1 0-175.542857 0Z" fill="#FFF9C4" p-id="6759"></path><path d="M468.114286 281.482971L146.285714 749.597257h643.657143z" fill="#942A09" p-id="6760"></path><path d="M789.942857 457.025829l-234.057143 292.571428h468.114286z" fill="#BF360C" p-id="6761"></path></svg>