<?xml version="1.0" standalone="no"?><!DOCTYPE svg PUBLIC "-//W3C//DTD SVG 1.1//EN" "http://www.w3.org/Graphics/SVG/1.1/DTD/svg11.dtd"><svg t="1678331722559" class="icon" viewBox="0 0 1024 1024" version="1.1" xmlns="http://www.w3.org/2000/svg" p-id="2441" xmlns:xlink="http://www.w3.org/1999/xlink" width="48" height="48"><path d="M954.88 533.76a440.896 440.896 0 0 0-68.48-260.544l-0.192-0.192-0.384-0.704c-0.448-0.512-0.704-1.152-1.152-1.728a445.888 445.888 0 0 0-151.552-144.512 450.368 450.368 0 0 0-180.8-57.472l-0.192-0.192-12.352-0.832h-0.64a442.56 442.56 0 0 0-143.616 14.336l-12.16 3.264-0.192 0.384A443.968 443.968 0 0 0 110.72 318.272v0.128a447.488 447.488 0 0 0-43.52 212.288h-0.128a444.032 444.032 0 0 0 365.312 417.728l0.064 0.192 9.408 1.408c1.024 0.192 1.92 0.256 2.88 0.512h0.128a443.52 443.52 0 0 0 195.392-14.08l12.416-3.84 0.064-0.192a452.16 452.16 0 0 0 98.944-47.488 446.528 446.528 0 0 0 145.92-154.112c32.192-56.96 51.648-120.96 56.64-186.24l0.192-0.256 0.512-10.624z m-63.488-14.08a498.112 498.112 0 0 1-144.768 114.944 730.24 730.24 0 0 0-11.712-212.736l0.384-0.192-0.128-0.384a562.368 562.368 0 0 0 116.48-79.616c27.648 55.296 41.28 116.032 39.744 177.984zM266.624 444.032a728.064 728.064 0 0 0 14.848 192.768 500.096 500.096 0 0 1-150.784-119.488 384 384 0 0 1 22.4-134.784 565.76 565.76 0 0 0 113.088 60.992v0.384l0.448 0.128zM355.2 667.52a666.24 666.24 0 0 1-25.408-203.072 564.48 564.48 0 0 0 146.88 19.456 560.832 560.832 0 0 0 198.016-36.096c13.12 71.552 14.4 144.128 3.84 216.512a500.672 500.672 0 0 1-323.328 3.2z m462.592-381.44A504.96 504.96 0 0 1 718.72 357.76a723.008 723.008 0 0 0-104.128-212.48 375.68 375.68 0 0 1 203.2 140.992z m-295.68-155.136a662.528 662.528 0 0 1 137.984 254.208 498.944 498.944 0 0 1-325.184 14.272c11.712-91.392 42.24-180.096 89.408-258.688a377.92 377.92 0 0 1 97.792-9.792z m-216.96 60.288c9.472-6.016 19.072-11.584 28.928-16.768-29.76 64-50.304 132.352-60.672 202.368a503.68 503.68 0 0 1-93.12-53.696A380.032 380.032 0 0 1 305.28 191.36z m-114.048 525.696a379.264 379.264 0 0 1-43.392-93.12 565.568 565.568 0 0 0 155.904 93.056c17.6 52.16 40.896 101.952 69.696 148.864A383.36 383.36 0 0 1 306.56 832a376.064 376.064 0 0 1-115.52-115.008z m275.584 171.904a663.744 663.744 0 0 1-85.504-147.52c93.44 22.208 190.72 20.48 283.008-5.376-12.864 49.6-31.296 97.408-55.04 142.72a381.632 381.632 0 0 1-142.464 10.24z m250.24-57.92a448.448 448.448 0 0 1-21.056 12.608c17.408-42.752 30.656-87.04 39.68-132.672A570.24 570.24 0 0 0 873.6 626.56c-7.936 25.28-18.56 49.664-31.616 72.576a382.72 382.72 0 0 1-124.992 131.84z" fill="#1296db" p-id="2442"></path></svg>