<?xml version="1.0" standalone="no"?><!DOCTYPE svg PUBLIC "-//W3C//DTD SVG 1.1//EN" "http://www.w3.org/Graphics/SVG/1.1/DTD/svg11.dtd"><svg t="1675332400596" class="icon" viewBox="0 0 1240 1024" version="1.1" xmlns="http://www.w3.org/2000/svg" p-id="3912" width="58.125" height="48" xmlns:xlink="http://www.w3.org/1999/xlink"><path d="M538.666667 512l216 0 0 80.8-216 0 0-80.8Z" fill="#1296db" p-id="3913"></path><path d="M810.666667 621.333333a26.666667 26.666667 0 0 1-26.666667 26.666667H512a26.666667 26.666667 0 0 1-26.666667-26.666667v-29.333333H109.333333v378.666667a53.333333 53.333333 0 0 0 53.333334 53.333333h970.666666a53.333333 53.333333 0 0 0 53.333334-53.333333V592H810.666667zM1186.666667 162.666667h-242.666667V26.666667a26.666667 26.666667 0 0 0-26.666667-26.666667H352a26.666667 26.666667 0 0 0-26.666667 26.666667v136H106.666667a53.333333 53.333333 0 0 0-53.333334 53.333333v269.333333a53.333333 53.333333 0 0 0 53.333334 53.333334h378.666666v-53.333334a26.666667 26.666667 0 0 1 26.666667-26.666666h272a26.666667 26.666667 0 0 1 26.666667 26.666666v53.333334h376a53.333333 53.333333 0 0 0 53.333333-53.333334V216a53.333333 53.333333 0 0 0-53.333333-53.333333z m-288-26.666667a26.666667 26.666667 0 0 1-26.666667 26.666667H413.333333a26.666667 26.666667 0 0 1-26.666666-26.666667v-53.333333a26.666667 26.666667 0 0 1 26.666666-26.666667h458.666667a26.666667 26.666667 0 0 1 26.666667 26.666667z" fill="#1296db" p-id="3914"></path><path d="M754.666667 621.333333a26.666667 26.666667 0 0 1-26.666667 26.666667H458.666667a26.666667 26.666667 0 0 1-26.666667-26.666667v-29.333333H53.333333v378.666667a53.333333 53.333333 0 0 0 53.333334 53.333333h973.333333a53.333333 53.333333 0 0 0 53.333333-53.333333V592H754.666667z" fill="#1296db" p-id="3915"></path><path d="M485.333333 512l216 0 0 80.8-216 0 0-80.8Z" fill="#1296db" p-id="3916"></path><path d="M1133.333333 162.666667h-242.666666V26.666667a26.666667 26.666667 0 0 0-26.666667-26.666667H296a26.666667 26.666667 0 0 0-26.666667 26.666667v136H53.333333a53.333333 53.333333 0 0 0-53.333333 53.333333v269.333333a53.333333 53.333333 0 0 0 53.333333 53.333334h378.666667v-53.333334a26.666667 26.666667 0 0 1 26.666667-26.666666h269.333333a26.666667 26.666667 0 0 1 26.666667 26.666666v53.333334h378.666666a53.333333 53.333333 0 0 0 53.333334-53.333334V216a53.333333 53.333333 0 0 0-53.333334-53.333333z m-290.666666-26.666667a26.666667 26.666667 0 0 1-26.666667 26.666667H357.333333a26.666667 26.666667 0 0 1-26.666666-26.666667v-53.333333a26.666667 26.666667 0 0 1 26.666666-26.666667h458.666667a26.666667 26.666667 0 0 1 26.666667 26.666667z" fill="#1296db" p-id="3917"></path><path d="M512 512l216 0 0 80.8-216 0 0-80.8Z" fill="#1296db" p-id="3918"></path><path d="M781.333333 621.333333a26.666667 26.666667 0 0 1-26.666666 26.666667H485.333333a26.666667 26.666667 0 0 1-26.666666-26.666667v-29.333333H82.666667v378.666667a53.333333 53.333333 0 0 0 53.333333 53.333333h970.666667a53.333333 53.333333 0 0 0 53.333333-53.333333V592H781.333333zM1160 162.666667h-242.666667V26.666667a26.666667 26.666667 0 0 0-26.666666-26.666667H322.666667a26.666667 26.666667 0 0 0-26.666667 26.666667v136H80a53.333333 53.333333 0 0 0-53.333333 53.333333v269.333333a53.333333 53.333333 0 0 0 53.333333 53.333334h378.666667v-53.333334a26.666667 26.666667 0 0 1 26.666666-26.666666h269.333334a26.666667 26.666667 0 0 1 26.666666 26.666666v53.333334h378.666667a53.333333 53.333333 0 0 0 53.333333-53.333334V216a53.333333 53.333333 0 0 0-53.333333-53.333333z m-293.333333-26.666667a26.666667 26.666667 0 0 1-26.666667 26.666667H381.333333a26.666667 26.666667 0 0 1-26.666666-26.666667v-53.333333a26.666667 26.666667 0 0 1 26.666666-26.666667h458.666667a26.666667 26.666667 0 0 1 26.666667 26.666667z" fill="#1296db" p-id="3919"></path><path d="M837.333333 538.666667v-26.666667a1008 1008 0 0 1 80-394.666667v45.333334h242.666667a53.333333 53.333333 0 0 1 53.333333 53.333333v269.333333a53.333333 53.333333 0 0 1-53.333333 53.333334z m2.666667 53.333333h320v378.666667a53.333333 53.333333 0 0 1-53.333333 53.333333h-130.666667a1005.333333 1005.333333 0 0 1-136-432z" fill="#1296db" p-id="3920"></path></svg>