<?xml version="1.0" standalone="no"?><!DOCTYPE svg PUBLIC "-//W3C//DTD SVG 1.1//EN" "http://www.w3.org/Graphics/SVG/1.1/DTD/svg11.dtd"><svg t="1645276466931" class="icon" viewBox="0 0 1024 1024" version="1.1" xmlns="http://www.w3.org/2000/svg" p-id="4954" xmlns:xlink="http://www.w3.org/1999/xlink" width="48" height="48"><defs><style type="text/css"></style></defs><path d="M838 0H186C83.7 0 0 83.7 0 186v652c0 101.3 82.1 184.4 183 186h658c100.9-1.6 183-84.7 183-186V186C1024 83.7 940.3 0 838 0zM521.6 672.1c0.5-15.4 6.9-32.2 19.8-50.6 11.4-17.8 27.8-35.7 44.1-55 25.3-29.3 87.7-97.2 109.1-139.3 4-7.9 6.4-15.4 7.4-21.8 2.5-37.7-45.6-52.5-117-72.4l-13.9 8.4 26.8 21.8c-120.5 21.3-192.8 43.6-280.6 74.4l12.4 31.2-44.1 43.2c7.4 1.5 84.3 27.3 163.6-28.3l0.5-0.5 1-1c-2.5-4-7.4-8.2-14.4-13.6 23.8 1.5 38.2 13.1 35.7 43.8h-10.4c0.5 0-0.8-14.6-2.8-20.1-61.5 45.6-132.6 51.3-193.6 30v53.5c-31.8 10.4-82.5 43.1-82.5 74.4 2 15.4 9.1 20.8 16.5 24.8 67.4 38.2 249.7-13.9 249.2-13.9-65.4 33.7-130.5 60.5-226.6 64.4C94.4 723.2 76 638.4 135 550.2c57-89.2 146.7-168.5 290-219.1 41.6-14.9 102.6-31.2 161.6-32.7 84.8 0 167.1 25.3 161.6 107.1-4 63-92.2 149.2-139.8 212.7-20.8 27.3-24.3 46.1 10.9 43.6 124.4-7.9 238.9-51.1 344.5-96.2-72.4 48-439.7 230.9-442.2 106.5z" fill="#1296db" p-id="4955"></path></svg>