<?xml version="1.0" standalone="no"?><!DOCTYPE svg PUBLIC "-//W3C//DTD SVG 1.1//EN" "http://www.w3.org/Graphics/SVG/1.1/DTD/svg11.dtd"><svg t="1645267694335" class="icon" viewBox="0 0 1024 1024" version="1.1" xmlns="http://www.w3.org/2000/svg" p-id="18068" xmlns:xlink="http://www.w3.org/1999/xlink" width="48" height="48"><defs><style type="text/css"></style></defs><path d="M72.697565 0H952.207384a90.494894 90.494894 0 0 1 51.883739 28.958366c11.563236 11.462687 14.981932 28.053417 20.109977 42.83425v405.718774c-11.563236 17.495679-35.293009 23.528672-42.432051 44.141399-8.44619 14.076984-26.645719 14.579733-40.219952 19.406127-7.541241 4.926944-22.120974 6.435192-17.998429 18.903378 6.133543 61.435978-1.910448 128.30165 26.947368 185.112333 16.69128 24.131972 46.554595 34.08641 74.105263 40.219953v166.812254a90.494894 90.494894 0 0 1-33.88531 55.905735 113.721917 113.721917 0 0 1-37.907306 15.987431H358.15868c-5.932443-8.84839 4.424195-17.696779 12.065986-20.813826a355.745483 355.745483 0 0 0 45.951296-15.082482c10.054988-4.323645 16.389631-12.468185 11.965436-23.025923 16.99293-30.164965 35.795758-60.329929 53.291438-90.494894 0.904949-3.418696 8.043991-8.14454 3.519246-11.261587-10.758837-6.736842-21.115475-15.987431-34.68971-15.484682a27.651218 27.651218 0 0 1-25.941869-24.93637c-15.585232-15.283582-33.181461-28.857816-49.671642-43.337-6.736842-4.625295 1.206599-10.758837 5.429694-13.272584 10.557738-5.831893 19.104478-16.89238 30.768264-20.109976 22.020424 15.384132 41.627651 34.689709 61.737627 51.984289 4.223095 7.440691-10.758837 13.574234-8.34564 21.216025a38.912804 38.912804 0 0 1 8.84839 11.362136 183.402985 183.402985 0 0 0 42.7337 2.312648c14.579733 3.720346 18.501178-13.172035 24.433621-22.422624-1.508248-10.557738 7.742341-17.696779 11.663786-26.545169a100.549882 100.549882 0 0 1 33.684211-33.58366c1.106049-12.970935-13.071485-5.932443-19.406128-4.725845-5.228594-6.636292-15.183032-2.413197-19.506677-10.658287-2.714847-5.932443-13.574234 0.603299-13.373134-6.636293 1.910448-17.19403-13.775334-26.444619-25.53967-35.594658a15.585232 15.585232 0 0 1-3.820896-23.830322 387.016496 387.016496 0 0 1 30.164965-43.538099c17.897879-14.579733 41.024352-4.625295 59.42498 3.519246a70.887667 70.887667 0 0 1 26.444619 43.739199c3.921445 14.680283-5.429694 31.673213 6.334643 44.443048a131.921445 131.921445 0 0 0 35.293009 20.713275c18.300079 9.250589 26.042419 29.360566 34.18696 46.856245a418.28751 418.28751 0 0 1 20.109976 68.77612c1.508248 4.826394 0 11.161037 4.424195 14.579733a169.225452 169.225452 0 0 0 38.410055-52.084839 370.626866 370.626866 0 0 0 22.020424-92.807542 412.254517 412.254517 0 0 0 11.261587-108.694422c-2.312647-15.585232-2.312647-34.38806-13.976434-46.152396-24.031422 2.915947-36.600157-21.014925-56.911233-28.153967-9.351139-6.937942-15.987431-16.69128-25.238021-23.729772s-12.166536-17.29458-23.729772-15.283582c3.117046-2.111548 5.932443-4.926944 1.809898-7.742341-3.519246-5.027494-5.630793 3.318146-10.054988 2.614297 0-4.524745 4.826394-10.658288-0.804399-13.172035A5.932443 5.932443 0 0 1 653.574234 482.639434c-3.318146 1.407698-1.206599 11.462687-6.937942 7.943441s-2.614297 11.060487-8.74784 5.731343-10.054988-2.513747-10.758837 3.720346c-4.725844 4.122545-7.038492-2.111548-4.122545-6.334643 2.212097-6.435192 13.574234-6.636292 10.557738-14.981932s-14.579733 9.150039-11.663787-2.915947c7.541241 0 8.14454-8.14454 14.479183-10.658287 5.027494-4.625295-3.720346-9.451689-7.94344-7.139042-1.307148 2.815397 0 8.54674-3.519246 10.054988-7.239592 1.005499-6.937942 12.166536-15.183033 10.054989-10.054988 10.054988 11.864886 18.903378 4.424195 30.164964-2.915947 5.831893-5.329144-8.64729-9.250589-4.323645s-3.217596 8.043991-6.133543 11.362137a32.075412 32.075412 0 0 1-6.334642-17.29458c-6.234093-1.106049-7.440691 11.764336-14.981933 8.245091-2.212097-7.742341 12.367636-10.054988 10.054989-17.998429-9.150039-0.904949-15.987431 8.54674-25.64022 3.519246 2.614297-4.625295 10.658288-19.406127 0.603299-17.59623A37.605656 37.605656 0 0 1 542.969364 487.063629c-6.334643-3.619796 7.139042-10.054988 2.915946-15.183032s2.212097-13.272584-1.106048-18.903378c-8.043991 3.519246-1.910448 16.087981-11.060487 20.109977-6.133543-1.709348 7.641791-15.484682-0.904949-11.864886-3.619796 5.027494-7.541241-4.625295-11.764337 0-1.809898 3.519246-8.44619 7.842891-4.021995 11.764336 2.413197 2.614297-1.809898 4.424195-3.117046 6.334642-1.608798 5.530244 10.054988 1.407698 5.932443 8.74784-0.804399 4.625295-8.14454-1.910448-8.74784 3.318146s10.658288 3.117046 6.736842 10.054988a23.025923 23.025923 0 0 1-11.864886 4.625295c0 6.133543 10.859387 8.043991 7.943441 15.685782-3.820896 1.307148-3.318146-4.826394-6.837392-4.021996-5.731343 4.323645 5.932443 15.585232-4.323645 10.054989-8.043991 14.881383-10.054988-5.228594-11.161037-11.161037-8.043991-0.904949-4.725844 15.384132-13.373134 15.484681a32.175962 32.175962 0 0 1 12.669285-25.64022c-3.016496-5.329144-1.407698-12.870385-5.932443-17.194029-6.435192 3.117046-0.603299 10.054988 0.904949 14.076983-4.424195 1.809898-12.166536-1.809898-10.054989 7.842891-5.329144 7.440691-10.054988-4.021995-8.14454-9.351139 3.720346-4.524745-5.429694-10.758837-6.837392-4.625295-6.736842 10.054988 11.965436 6.636292 3.117046 15.082483-7.842891 0-21.718775-6.133543-28.153967 3.921445-5.630793 2.312647-3.519246-7.440691-5.329143-10.758837 4.122545 0.804399 10.054988 3.619796 11.864886-1.809898a17.19403 17.19403 0 0 1 7.440691-14.780833c3.016496-7.742341-7.541241-4.926944-11.563237-3.318146-1.005499-8.24509 9.351139-10.054988 15.082483-7.139042 5.831893-2.312647-6.435192-7.440691 0-10.054988s17.09348 2.111548 13.272584-7.742341c4.826394-3.720346 14.881383-5.027494 17.797329-11.060487-5.630793-10.054988-21.417125 14.881383-17.696779-1.809898 2.413197-3.519246 14.881383-6.535742 8.54674-10.959937-4.826394 0-2.614297-9.049489-8.34564-5.831893 4.223095 12.870385-8.74784 17.897879-12.769835 27.450118-7.641791-4.826394-13.172035 1.307148-17.797329 6.032993-6.736842-5.329144-13.071485-0.804399-19.003928 4.021995-10.054988-2.312647-6.535742-21.216025-20.109976-18.903378-3.418696 2.714847-3.418696 7.440691-5.128044 11.060487-8.84839 1.307148-10.859387 12.970935-19.205028 14.981933 2.614297-8.94894 3.820896-20.109976 13.775334-24.333072 0-7.842891 13.272584-17.696779 0-21.115475-9.150039-6.133543-3.619796 14.479183-12.367636 6.234093-12.468185-6.736842 0.904949 13.775334-7.94344 8.04399-5.228594-3.318146-2.614297 5.228594-6.032993 7.038492s1.508248 6.937942 1.307148 10.758837a9.351139 9.351139 0 0 0-13.674784 8.94894 52.989788 52.989788 0 0 0-14.076983 1.407698c1.608798-10.054988 14.378633-12.970935 13.373134-23.930872 5.429694-8.94894-3.720346-6.234093-6.435192-1.106048a20.109976 20.109976 0 0 1-10.054989-20.109977c-5.831893-2.513747-7.641791 3.016496-10.054988 6.535742-11.161037-3.016496-12.166536 16.389631-1.407698 16.289081 5.530244 0 10.557738 10.054988 5.429694 13.172035 0-4.826394-10.557738-11.864886-10.054989-5.128044 4.725844 4.223095 13.875884 6.234093 7.943441 14.278083-3.117046 11.462687-7.842891-8.44619-14.780833-4.826394s7.239592 14.981932-1.307148 17.897879c-6.736842-4.122545-16.79183-4.223095-17.49568 5.630793-11.864886 3.519246-4.424195-19.104478-15.183032-12.468185-0.804399 3.921445-4.826394 14.479183-7.541241 6.133543 2.815397-12.870385-12.769835-11.462687-7.038492 1.005499-10.054988 0.502749-9.150039-18.199529-17.998429-11.663787-4.826394 5.630793-3.619796 14.378633-10.054988 19.305578-7.742341-2.815397 7.038492-19.406127-2.513747-17.49568-2.413197 2.212097-12.267086 15.384132-10.054988 5.228594 6.636292-6.435192-5.329144-10.658288-9.250589-5.228594-1.608798 1.608798-4.223095 7.139042-6.032993 2.915947-3.418696-6.736842 6.937942-8.043991 7.742341-13.272585-4.725844 0-10.959937 3.921445-14.579733-0.904949-1.809898-3.117046 4.725844-11.462687-0.703849-11.261587-9.451689 2.614297 0 14.479183-1.106049 20.713276-4.826394 3.820896-3.820896-8.84839-10.054988-4.323645-2.614297 5.932443-7.943441 2.815397-10.758838-0.502749-9.150039 2.714847-1.608798 10.557738 0 15.685781-8.043991-0.904949 0 9.351139-2.815396 11.161037-5.530244-2.815397-8.34564 3.418696-13.071485 4.323645-3.820896-3.519246-11.462687-10.054988-7.842891-15.786331s7.641791-23.025923 1.206599-19.003928c6.032993 12.065986-10.054988 13.674784-8.64729 24.735271 0 5.329144-10.054988 11.965436-6.837392 3.016497-2.010998-15.585232 14.479183-24.534171 14.076983-38.007856-9.150039-1.809898-5.731343 14.881383-15.786331 11.965436-3.720346-4.524745 2.312647-8.44619 1.809898-12.970935-8.44619-2.111548-4.926944 8.34564-10.054989 11.261587a10.758837 10.758837 0 0 0-15.283582-3.921445c0.703849-3.619796 5.630793-7.943441 0-10.054989-6.636292 3.318146-10.054988 11.864886-17.998429 13.272585-0.703849-5.128044 4.021995-8.64729 5.831894-13.071485-2.111548-4.725844-8.043991-10.859387-1.106049-14.278083a27.148468 27.148468 0 0 0 14.278083-22.724273c-9.150039-3.217596-4.926944 16.389631-13.172034 9.150039-3.820896-8.14454-9.451689 4.223095-13.674784 0-0.904949-13.272584 20.109976-14.981932 20.109976-27.751768-10.054988-1.910448-14.881383 8.34564-20.109976 14.579733-8.74784 15.283582-29.662215 11.965436-44.543598 17.39513a37.102907 37.102907 0 0 1-18.702278 0.804399c-3.921445-4.725844 10.054988-1.910448 6.032993-5.831893-11.161037 2.915947 0-10.658288-7.842891-12.468186a15.886881 15.886881 0 0 1-11.563237 0c-15.484682 0.603299 3.720346-9.150039 9.25059-6.032993 10.054988 2.010998 11.362137-12.769835 1.608798-8.44619-2.010998-3.720346-3.519246-6.032993-7.440692-2.413197a8.043991 8.043991 0 0 0-11.563236 4.323645V71.792616a96.427337 96.427337 0 0 1 21.316575-44.443048A90.494894 90.494894 0 0 1 72.697565 0m74.608012 135.139042c-1.508248 0.804399-1.307148 2.413197-1.407698 3.820895v249.866457h28.857816c1.608798-27.349568-2.815397-57.313433 2.010998-83.154752 24.835821 25.74077 43.538099 56.911233 69.278869 81.847604a130.010998 130.010998 0 0 0 31.974862 1.206598c-20.109976-29.159466-44.945797-55.201885-66.564022-83.556952-3.318146-4.223095-9.150039-7.842891-8.44619-13.976433 22.824823-23.126473 46.252946-45.850746 68.876669-69.178319a303.358995 303.358995 0 0 0-34.488609 0.502749c-21.417125 18.903378-40.219953 42.5326-62.542027 59.52553v-144.79183c-6.837392-6.334643-19.104478 0-27.550668-2.212097m489.979576 0c-3.619796 26.243519 0 55.201885-1.910448 82.249803a3.016496 3.016496 0 0 1-5.228593 1.508249 96.427337 96.427337 0 0 0-77.12176 15.082482c-49.168892 34.991359-47.157895 125.285153 11.161037 150.120974a128.804399 128.804399 0 0 0 101.555381-1.910448c0.502749-81.747054 0-163.594658 0-245.341712-8.14454-3.921445-19.506677 0-28.556167-1.106049m57.816183 1.106049v226.739984c1.608798 6.937942 1.407698 15.384132 8.14454 20.109976 12.669285 12.870385 32.075412 8.84839 47.861744 6.234093-6.032993 4.122545 0 11.060487 2.312647 15.585232 6.435192 11.563236 16.99293 23.528672 13.071485 37.907305-2.111548 15.183032 16.289081 24.534171 29.260016 24.333072 8.64729-13.172035 7.742341-30.164965 15.484681-43.739199 8.74784-10.054988 1.005499-22.724273-2.513747-33.78476a111.20817 111.20817 0 0 0 81.043205-10.054988c0.703849-7.038492-4.625295-13.071485-7.139041-19.406128-8.34564-1.106049-13.574234 7.842891-21.919875 7.541241a57.715632 57.715632 0 0 1-69.479968-26.846818c-3.418696-9.150039-9.451689-21.014925-3.921446-29.662215 35.896308-0.603299 71.792616 0 107.688924 0 2.010998-27.550668-3.921445-57.816182-23.729772-78.127259-30.164965-26.947368-84.160251-19.305577-103.264729 17.19403a118.246661 118.246661 0 0 0-3.619796 100.549882c4.424195 15.082482 18.702278 23.729772 30.164965 33.181461-8.34564-2.513747-16.79183 0-25.137471-2.513747a28.556167 28.556167 0 0 1-16.89238 6.736842c0-7.239592-4.021995-13.775334-4.625294-21.014925a20.713276 20.713276 0 0 1-23.830322-9.853888V137.351139c-7.038492-5.731343-20.713276-1.910448-28.656717-1.106049m-386.714847 22.120974c-17.696779 8.94894-10.054988 39.214454 10.054989 37.404557 10.959937-1.910448 23.025923-13.373134 17.897879-25.338571a22.523174 22.523174 0 0 0-28.254517-12.065986m136.14454 58.117832a95.622938 95.622938 0 0 0-50.77769 24.232522c-5.932443 2.413197-5.128044-5.932443-5.731344-10.054988 1.709348-15.283582-17.09348-7.440691-25.841319-9.04949v166.812255h28.757266v-123.676355c17.09348-13.775334 40.219953-28.254517 62.642577-20.109977 13.272584 4.926944 16.99293 20.109976 18.199528 32.779262 0.502749 36.700707-0.904949 74.004713 0.703849 110.60487a78.931658 78.931658 0 0 0 29.159466-0.603299c0-42.130401 1.608798-84.663001-1.005499-126.592302a50.274941 50.274941 0 0 0-56.408483-44.644147m-141.373135 5.530243v166.812255h28.857816V221.71249c-9.552239-0.502749-19.205027 0-28.857816 0M859.399843 410.243519c-4.926944 10.054988-22.422624 5.027494-20.109977 18.802828-2.614297 8.94894-7.038492 21.115475 1.106049 27.952867 6.234093-4.725844 20.109976 1.608798 20.109977-10.557737s8.54674-22.221524 8.14454-34.08641c0-4.625295-6.837392-1.307148-9.250589-2.111548m-134.234093 34.890809c-10.054988 7.340141 1.910448 16.69128-1.407698 24.735271-3.418696-1.709348-10.959937-3.318146-8.84839 3.117047s-4.323645 0.502749-7.340141 0c-5.932443 1.206599-4.926944-13.473684-8.64729-4.424195s-2.413197-10.054988-8.34564-5.329144c-1.508248 8.94894 10.054988 14.680283 17.395129 18.400629 12.669285 5.429694 13.071485 22.020424 25.338571 27.550667 13.674784 2.815397 23.528672 13.574234 36.801257 17.19403 5.630793 1.106049 16.289081-0.703849 14.780832-8.74784a66.463472 66.463472 0 0 0-33.68421-42.23095c-3.820896-3.820896-5.429694 7.139042-8.44619 1.407698 2.010998-10.054988-12.065986-3.217596-12.367636-10.557737 0-5.831893-9.150039-10.054988-3.820895-16.087982 3.720346-2.111548 4.021995-7.139042-1.407699-5.429693m235.890024 29.058916c-14.479183 10.054988-31.974863 16.79183-42.7337 31.069913-3.720346 2.714847-4.122545 10.054988 1.608798 10.054989C935.113904 512.804399 955.223881 512.804399 960.251375 494.303221c1.709348-5.530244 8.14454-18.501178 0.804399-20.109977M500.436764 502.749411c-7.038492 4.021995-10.054988 17.19403-0.6033 20.109976a38.711705 38.711705 0 0 1 2.212098-16.99293c1.206599-2.010998 1.206599-4.323645-1.608798-2.714847m87.780047 324.77612c-6.937942 6.435192-18.400628 12.065986-20.109977 21.618224 14.177533 6.032993 28.556167 12.267086 43.03535 17.29458A365.800471 365.800471 0 0 1 593.244305 829.938727c0-2.815397-2.614297-3.619796-4.826395-2.815396m-45.850746 94.114689c-17.998429 23.126473-38.309505 44.543598-56.609583 67.569521-8.44619-2.915947-18.802828 0-15.786332 11.161037 27.148468-6.435192 53.593087-17.39513 81.445405-21.417125a297.728201 297.728201 0 0 0 47.761194-24.634721 161.483111 161.483111 0 0 0-20.109977-12.669285c-12.970935-5.027494-22.824823-18.300079-36.399057-20.109976z" fill="#252525" p-id="18069"></path><path d="M607.421838 241.319717a51.883739 51.883739 0 0 1 28.355067 4.826395v115.431264c-6.133543 9.552239-21.014925 6.334643-30.667714 7.842891a72.496465 72.496465 0 0 1-44.744698-21.115475 79.233307 79.233307 0 0 1-3.318146-79.534957A57.514533 57.514533 0 0 1 607.421838 241.319717z m209.043205 0a38.410055 38.410055 0 0 1 38.208955 11.563237 58.620581 58.620581 0 0 1 11.060487 35.695208c-24.534171 5.530244-51.28044 1.307148-76.31736 1.910448-10.054988-5.831893-2.111548-21.115475 2.413197-29.561666A36.298507 36.298507 0 0 1 816.465043 241.319717z" fill="#252525" p-id="18070"></path><path d="M147.305577 135.139042c8.44619 1.809898 20.713276-4.122545 27.550668 2.212097 0.502749 48.263943 0 96.527887 0 144.79183 22.523174-16.99293 41.124902-40.219953 62.542027-59.52553a303.358995 303.358995 0 0 1 34.488609-0.502749c-22.623723 23.327573-46.051846 46.051846-68.876669 69.178319-0.703849 6.133543 5.128044 10.054988 8.44619 13.976433 21.618225 28.355067 46.454046 54.397486 66.564022 83.556952a130.010998 130.010998 0 0 1-31.974862-1.206598c-25.74077-24.936371-44.443048-56.106834-69.278869-81.847604-4.826394 25.84132 0 55.805185-2.010998 83.154752h-28.857816V139.060487c0.10055-1.508248-0.10055-3.117046 1.407698-3.921445z m489.979576 0c9.049489 1.206599 20.109976-2.815397 28.556167 1.106048v245.341713a128.804399 128.804399 0 0 1-101.756481 2.413197c-58.318932-24.835821-60.329929-115.129615-11.161037-150.120974a96.427337 96.427337 0 0 1 77.322859-14.981933 3.016496 3.016496 0 0 0 5.228594-1.508248c2.413197-27.047918-1.709348-56.006284 1.910448-82.249803M607.421838 241.319717a57.514533 57.514533 0 0 0-50.274941 27.450118 79.233307 79.233307 0 0 0 3.318146 79.534957 72.496465 72.496465 0 0 0 44.744698 21.115475c10.054988-1.508248 24.534171 1.709348 30.667714-7.842891V246.146112a51.883739 51.883739 0 0 0-28.455617-4.826395z m87.679497-105.376276c7.943441-0.804399 21.618225-4.625295 28.656717 1.106048v220.505892a20.713276 20.713276 0 0 0 23.528672 9.250589c0.603299 7.239592 4.424195 13.775334 4.625295 21.014926l-1.206599 0.904948c-15.786332 2.614297-35.192459 6.636292-47.861744-6.234092-6.736842-4.424195-6.535742-12.870385-8.14454-20.109977 0.30165-75.010212 0.10055-150.623723 0.402199-226.136685z m-386.714846 22.120974A22.523174 22.523174 0 0 1 336.641005 170.9348c5.128044 11.965436-6.937942 23.428123-17.897879 25.33857-20.411626 1.307148-28.053417-28.958366-10.356637-37.907306z m136.04399 58.419481A50.274941 50.274941 0 0 1 500.838963 261.429694c2.614297 41.929301 0 84.461901 1.005499 126.592301a78.931658 78.931658 0 0 1-29.159466 0.6033c-1.608798-36.399057 0-73.703064-0.703849-110.604871-1.206599-12.468185-4.926944-27.852317-18.199529-32.779261-22.523174-8.14454-45.549097 6.334643-62.642576 20.109976v123.676355h-28.757267V222.21524c8.74784 1.608798 27.550668-6.234093 25.84132 9.049489 0.603299 3.720346 0 12.065986 5.731343 10.054988a95.622938 95.622938 0 0 1 50.476041-24.835821z m323.468971 33.483111c19.104478-36.499607 73.099764-44.141398 103.264729-17.19403 20.109976 20.109976 25.74077 50.274941 23.729772 78.127259H787.205027c-5.530244 8.64729 0 20.109976 3.921446 29.662215a57.715632 57.715632 0 0 0 69.479968 26.846818c8.34564 0 13.574234-8.64729 21.919875-7.541241 2.513747 6.334643 7.842891 12.367636 7.139041 19.406128a111.20817 111.20817 0 0 1-81.043205 10.054988c-4.725844-2.111548-10.054988-2.915947-14.378633-5.429694-11.261587-9.451689-25.53967-18.098979-30.164964-33.181461a118.246661 118.246661 0 0 1 3.619795-100.549882M816.465043 241.319717a36.298507 36.298507 0 0 0-24.634721 20.109977c-4.524745 8.44619-12.065986 23.729772-2.413197 29.561665 25.036921-0.603299 51.783189 3.619796 76.31736-1.910448a58.620581 58.620581 0 0 0-11.060487-36.197957A38.410055 38.410055 0 0 0 816.465043 241.319717z m-513.407698-19.305577h28.857816v166.812254h-28.857816q-0.10055-83.355852 0-166.812254z" fill="#F59C24" p-id="18071"></path><path d="M769.106049 381.385703c8.34564 2.513747 16.79183 0 25.13747 2.513747 4.524745 2.513747 10.054988 3.318146 14.378633 5.429694 3.519246 11.060487 11.261587 23.327573 2.513747 33.78476-7.742341 13.574234-6.837392 30.164965-15.484681 43.739199-12.970935 0-31.371563-9.150039-29.260016-24.333072 3.921445-14.378633-6.636292-26.344069-13.071485-37.907305-2.111548-4.524745-8.34564-11.462687-2.312647-15.585232l1.206598-0.904949a28.556167 28.556167 0 0 0 16.892381-6.736842z m-757.341713 13.071485c3.921445-3.619796 5.429694-1.307148 7.440691 2.413197 10.054988-4.323645 8.64729 10.054988-1.608798 8.44619-5.530244-3.117046-24.735271 6.636292-9.250589 6.032993a15.886881 15.886881 0 0 0 11.563237 0c7.340141 1.809898-3.318146 15.384132 7.84289 12.468185 4.223095 3.921445-10.054988 1.106049-6.032992 5.831894A37.102907 37.102907 0 0 0 40.219953 428.443048c14.680283-5.429694 35.594658-2.111548 44.241948-17.897879 5.530244-6.234093 10.054988-16.490181 20.109976-14.579733 0 12.769835-20.813826 14.479183-20.109976 27.751767 4.223095 4.625295 10.054988-7.742341 13.674784 0 8.24509 7.239592 4.021995-12.367636 13.172035-9.150039a27.148468 27.148468 0 0 1-14.278084 22.724274c-6.937942 3.418696-1.005499 9.552239 1.106049 14.278083-1.809898 4.424195-6.535742 7.943441-5.831893 13.071484 7.541241-1.407698 11.362137-10.054988 17.998429-13.272584 5.429694 2.212097 0.502749 6.535742 0 10.054988a10.758837 10.758837 0 0 1 15.183032 4.323645c5.128044-2.915947 1.608798-13.373134 10.054988-11.261587 0.502749 4.524745-5.530244 8.44619-1.809898 12.970935 10.054988 2.915947 6.636292-13.775334 15.786332-11.965436 0 13.473684-16.087981 22.422624-14.076984 38.007856-2.815397 8.94894 6.837392 2.312647 6.837392-3.016497-1.709348-11.060487 14.680283-12.669285 8.64729-24.735271 6.435192-4.021995 2.815397 14.177533-1.206598 19.003928s4.021995 12.267086 7.84289 15.786331c4.725844-0.904949 7.541241-7.139042 13.071485-4.323645 2.915947-1.809898-5.228594-12.065986 2.815397-11.161036-1.608798-5.128044-9.150039-12.970935 0-15.685782 2.815397 3.318146 8.14454 6.435192 10.758837 0.502749 6.334643-4.524745 5.329144 8.14454 10.054988 4.323645 1.005499-6.234093-8.34564-18.098979 1.106049-20.713275 5.429694 0-1.106049 8.14454 0.703849 11.261586 3.619796 4.826394 10.054988 1.005499 14.579733 0.904949-0.804399 5.228594-11.161037 6.535742-7.742341 13.272585 1.809898 4.223095 4.424195-1.307148 6.032993-2.915947 3.921445-5.429694 15.886881-1.206599 9.250589 5.228594-2.614297 10.054988 7.239592-3.016496 10.054989-5.228594 10.054988-1.910448-5.228594 14.680283 2.513747 17.49568 6.133543-4.926944 4.926944-13.674784 10.054988-19.305578 8.84839-6.535742 8.24509 12.166536 17.998429 11.663787-5.731343-12.468185 10.054988-13.875884 7.038491-1.005499 2.714847 8.34564 6.736842-2.212097 7.541242-6.133543 10.758837-6.636292 3.318146 15.987431 15.183032 12.468185 0.703849-10.054988 10.758837-10.054988 17.495679-5.630793 8.54674-2.915947-5.429694-13.172035 1.307149-17.897879s11.563236 16.79183 14.378633 4.926944c5.932443-8.043991-3.217596-10.054988-7.943441-14.278083 0-6.736842 10.054988 0 10.054988 5.128044 5.128044-3.519246 0-12.669285-5.429693-13.172035-10.758837 0-10.054988-19.305577 1.407698-16.289081 2.413197-3.519246 4.223095-9.049489 10.054988-6.535742a20.109976 20.109976 0 0 0 10.054989 20.109977c2.714847-5.128044 11.864886-7.842891 6.435192 1.106048 1.005499 10.959937-11.764336 13.775334-13.373134 23.930872a52.989788 52.989788 0 0 1 13.775334-1.307148 9.351139 9.351139 0 0 1 14.479183-8.74784c0-3.820896-5.831893-7.943441-1.307149-10.758837s0.804399-10.054988 6.032993-7.038492c8.84839 5.731343-4.524745-14.780833 7.943441-8.043991 8.74784 8.24509 3.217596-12.367636 12.367635-6.234092 13.674784 3.418696 0 13.272584 0 21.115475-10.054988 4.021995-11.161037 15.384132-13.775334 24.333071 8.34564-2.010998 10.054988-13.674784 19.205028-14.981932 1.709348-3.619796 1.709348-8.34564 5.128044-11.060487 13.071485-2.312647 10.054988 16.590731 20.109976 18.903378 5.932443-4.826394 12.267086-9.351139 19.003928-4.021996 4.625295-4.725844 10.054988-10.859387 17.797329-6.032993 4.021995-10.054988 16.99293-14.579733 12.769835-27.450117 5.731343-3.217596 3.519246 5.530244 8.34564 5.831893 6.334643 4.424195-6.133543 7.440691-8.54674 10.959937-3.720346 16.69128 12.065986-7.842891 17.69678 1.809898-2.915947 6.032993-12.970935 7.340141-17.797329 11.060487 3.820896 10.054988-6.435192 6.435192-13.272585 7.742341s5.932443 7.641791 0 10.054988c-5.731343-3.418696-16.087981-1.106049-15.082482 7.139042 4.021995-1.608798 14.579733-4.424195 11.563236 3.318146a17.19403 17.19403 0 0 0-7.038491 14.881382c-2.212097 5.429694-7.742341 2.614297-11.864887 1.809898 1.809898 3.318146 0 13.071485 5.329144 10.758838 6.435192-10.054988 20.109976-4.122545 28.153967-3.921446 8.84839-8.44619-10.054988-4.725844-3.117046-15.082482 1.407698-6.133543 10.557738 0 6.837392 4.625294-1.508248 5.329144 2.815397 16.79183 8.14454 9.351139-1.709348-10.054988 6.032993-6.032993 10.054989-7.84289-1.508248-4.424195-7.340141-10.959937-0.904949-14.076984 4.524745 4.323645 2.915947 11.864886 5.932443 17.19403A32.175962 32.175962 0 0 0 478.315789 532.914375c8.64729 0 5.329144-16.389631 13.373135-15.484681 1.005499 5.429694 3.117046 25.53967 11.060487 10.758837 10.054988 5.429694-1.407698-5.831893 4.323645-10.054988 3.519246-0.804399 3.016496 5.329144 6.837392 4.021995 2.915947-7.641791-7.842891-10.054988-7.943441-15.685782a23.025923 23.025923 0 0 0 11.864886-4.625294c3.921445-7.340141-8.64729-4.625295-6.736842-10.054988s7.943441 1.307148 8.74784-3.318146c4.021995-7.340141-7.541241-3.217596-5.932443-8.74784 1.307148-1.910448 5.530244-3.720346 3.117046-6.334643-4.424195-3.921445 2.212097-8.24509 4.021995-11.764336 4.223095-4.826394 8.14454 4.826394 11.764337 0 8.54674-3.619796-5.228594 10.054988 0.904949 11.864886 9.150039-3.720346 3.016496-16.289081 11.060487-20.109976 3.318146 5.630793-2.915947 13.071485 1.106048 18.903378s-9.250589 11.563236-2.915946 15.183032a37.605656 37.605656 0 0 0 19.406127-13.775334c10.054988-1.809898 2.010998 12.970935-0.603299 17.596229 10.054988 5.027494 16.490181-4.424195 25.64022-3.519246 2.513747 7.641791-12.065986 10.054988-10.054989 17.998429 7.541241 3.519246 8.74784-9.351139 14.981933-8.24509a32.075412 32.075412 0 0 0 6.334642 17.29458c2.915947-3.318146 3.217596-8.14454 6.133543-11.362137s6.334643 10.054988 9.250589 4.323645c7.440691-11.563236-14.780833-20.109976-4.424194-30.164965 8.24509 2.312647 7.943441-8.84839 15.183032-10.054988 4.021995-1.005499 2.212097-6.736842 3.519246-10.054988 4.223095-2.312647 12.970935 2.513747 7.94344 7.139041-6.334643 2.513747-6.937942 10.658288-14.479183 10.658288-2.915947 12.065986 8.44619-4.021995 11.663787 2.915947s-8.34564 8.54674-10.557738 14.981932c-2.915947 4.223095-0.603299 10.054988 4.122545 6.334643 0.804399-6.234093 6.032993-10.054988 10.758838-3.720346s2.614297-10.054988 8.747839-5.731343 3.619796-6.535742 6.937942-7.943441a5.932443 5.932443 0 0 0 10.054988 0.804399c5.630793 2.513747 0.703849 8.64729 0.804399 13.172035 3.921445 0.703849 6.032993-7.641791 10.054989-2.614297 4.122545 2.815397 1.307148 5.630793-1.809898 7.742341 11.563236-2.010998 15.786332 10.054988 23.729772 15.283582s15.886881 16.79183 25.23802 23.729772c20.109976 7.139042 32.879811 31.069914 56.911234 28.153967 11.663786 11.764336 11.663786 30.164965 13.976433 46.152396a412.254517 412.254517 0 0 1-11.161037 108.694422 370.626866 370.626866 0 0 1-22.020424 92.807542 169.225452 169.225452 0 0 1-38.410055 52.084839c-4.323645-3.418696-2.915947-10.054988-4.424195-14.579733a418.28751 418.28751 0 0 0-20.109976-68.77612c-8.14454-17.495679-15.886881-37.605656-34.18696-46.856245a131.921445 131.921445 0 0 1-35.293009-20.713275c-11.764336-12.769835-2.413197-30.164965-6.334642-44.443048a70.887667 70.887667 0 0 0-26.444619-43.739199c-18.400628-8.14454-41.527101-18.098979-59.424981-3.519246a387.016496 387.016496 0 0 0-30.164964 43.538099 15.585232 15.585232 0 0 0 3.820895 23.830322c11.764336 9.150039 27.450118 18.400628 25.53967 35.594658 0 7.239592 10.658288 0.703849 13.373135 6.636293 4.323645 8.24509 14.278083 4.021995 19.506677 10.658287 6.334643-1.206599 20.109976-8.24509 19.406127 4.725845A100.549882 100.549882 0 0 0 552.119403 784.289081c-3.921445 8.84839-13.172035 15.987431-11.663786 26.545169-5.932443 9.250589-10.054988 26.142969-24.433622 22.422624a183.402985 183.402985 0 0 1-42.7337-2.312648 38.912804 38.912804 0 0 0-8.848389-11.362136c-2.413197-7.641791 12.568735-13.775334 8.34564-21.216026-20.612726-17.29458-40.219953-36.600157-61.938727-52.185388-11.663786 3.117046-20.109976 14.177533-30.768264 20.109976-4.223095 2.513747-12.166536 8.64729-5.429694 13.272584 16.490181 14.479183 34.08641 28.053417 49.671642 43.337a27.651218 27.651218 0 0 0 25.941869 24.93637c13.574234-0.502749 23.930872 8.74784 34.68971 15.484682 4.524745 3.117046-2.614297 7.842891-3.519246 11.261587-17.495679 30.164965-36.298507 60.329929-53.291438 90.494894 4.424195 10.054988-2.312647 18.702278-11.965436 23.025923a355.745483 355.745483 0 0 1-45.951296 15.082482c-7.641791 3.117046-17.998429 11.965436-12.065986 20.813826H70.384918a87.780047 87.780047 0 0 1-70.384918-70.384918V398.378633a8.043991 8.043991 0 0 1 11.764336-3.921445z m847.635507 15.786331c2.413197 0.804399 8.84839-2.513747 9.250589 2.111548 0 11.864886-7.239592 22.322074-8.14454 34.08641s-14.177533 5.831893-20.109977 10.557737c-8.14454-6.837392-3.720346-19.003928-1.106049-27.952867-2.312647-13.775334 15.384132-8.84839 20.109977-18.802828z m-134.234093 34.890809c5.429694-1.709348 5.128044 3.318146 1.407699 5.429694-5.329144 5.630793 3.820896 10.054988 3.820895 16.087981 0 7.340141 14.378633 0.603299 12.367636 10.557738 3.016496 5.731343 4.625295-5.228594 8.44619-1.407699a66.463472 66.463472 0 0 1 33.68421 42.230951c1.508248 8.043991-9.150039 10.054988-14.780832 8.74784-13.272584-3.619796-23.126473-14.378633-36.801257-17.19403-12.267086-5.530244-12.669285-22.120974-25.338571-27.550668-6.837392-3.720346-18.903378-9.451689-17.395129-18.400628 5.932443-4.725844 4.725844 15.384132 8.34564 5.329143s2.714847 5.630793 8.64729 4.424195c3.016496 0 10.054988 5.530244 7.340141 0s5.429694-4.826394 8.84839-3.117046c3.318146-8.44619-9.049489-17.797329 1.407698-25.137471z m235.890024 29.058916c7.340141 1.608798 0.904949 14.579733-0.804399 20.109977C955.223881 512.804399 935.113904 512.804399 919.930872 515.016496c-5.731343 0-5.329144-7.038492-1.608798-10.054988 10.758837-13.976434 28.254517-20.914375 42.7337-30.768264z m20.109976 47.459545c7.139042-20.612726 30.868814-26.645719 42.43205-44.141399v307.28044c-27.550668-5.630793-57.413983-15.585232-74.105263-40.219953-28.857816-56.810683-20.813826-123.676355-26.947368-185.112333-4.122545-12.468185 10.054988-13.976434 17.998429-18.903377 13.976434-4.826394 32.175962-5.329144 40.219953-19.406128z" fill="#4083C3" p-id="18072"></path><path d="M500.436764 502.749411c2.815397-1.608798 2.815397 0.703849 1.608798 2.714847a38.711705 38.711705 0 0 0-2.212098 16.99293c-8.94894-2.915947-6.435192-16.087981 0.6033-19.707777z m87.780047 324.776119c2.212097-0.804399 4.725844 0 4.826394 2.815397a365.800471 365.800471 0 0 0 17.998429 36.097408c-14.479183-5.027494-28.857816-11.261587-43.03535-17.29458 1.809898-9.954438 13.272584-15.585232 20.210527-22.020424z m-45.850747 94.11469c13.574234 1.709348 23.428123 14.981932 36.399058 20.109976a161.483111 161.483111 0 0 1 20.109976 12.669286 297.728201 297.728201 0 0 1-47.761194 24.634721c-27.852317 4.021995-54.296936 14.981932-81.445404 21.417125-3.016496-10.758837 7.340141-14.076984 15.786331-11.161037 18.300079-23.025923 38.611155-44.443048 56.609584-67.569521z" fill="#4083C3" p-id="18073"></path></svg>