<?xml version="1.0" standalone="no"?><!DOCTYPE svg PUBLIC "-//W3C//DTD SVG 1.1//EN" "http://www.w3.org/Graphics/SVG/1.1/DTD/svg11.dtd"><svg t="1645263055006" class="icon" viewBox="0 0 1024 1024" version="1.1" xmlns="http://www.w3.org/2000/svg" p-id="8122" xmlns:xlink="http://www.w3.org/1999/xlink" width="48" height="48"><defs><style type="text/css"></style></defs><path d="M1024 0v1024H0V0z" fill="#F5F5F5" p-id="8123"></path><path d="M723.263043 716.912076c116.55892 67.245531 116.55892 176.706312 0 243.951842a466.982853 466.982853 0 0 1-422.526086 0c-116.55892-67.245531-116.55892-176.706312 0-243.951842a466.982853 466.982853 0 0 1 422.526086 0z" fill="#080A0D" p-id="8124"></path><path d="M709.813937 725.878147c108.340022 62.388909 108.340022 164.004378 0 226.393287a433.360088 433.360088 0 0 1-392.265597 0c-108.340022-62.388909-108.340022-164.004378 0-226.393287a433.360088 433.360088 0 0 1 392.265597 0z" fill="#0B0E14" p-id="8125"></path><path d="M693.002554 734.470631c100.121124 57.905874 100.121124 151.302444 0 209.208318a400.110908 400.110908 0 0 1-362.005108 0c-100.121124-57.905874-100.121124-151.302444 0-209.208318a399.737322 399.737322 0 0 1 362.005108 0z" fill="#0F131B" p-id="8126"></path><path d="M677.685516 743.436702c91.528639 53.049252 91.528639 138.600511 0 191.649763a366.488143 366.488143 0 0 1-331.744619 0c-91.528639-53.049252-91.528639-138.600511 0-191.649763a366.488143 366.488143 0 0 1 331.744619 0z" fill="#131822" p-id="8127"></path><path d="M662.742065 752.029186c83.309741 48.19263 83.309741 125.898577 0 174.091208a332.865378 332.865378 0 0 1-301.110544 0c-83.309741-48.19263-83.309741-125.898577 0-174.091208a332.865378 332.865378 0 0 1 301.110544 0z" fill="#171D29" p-id="8128"></path><path d="M647.425027 760.995257c74.717256 43.336009 74.717256 112.075885 0 156.532653a298.869026 298.869026 0 0 1-270.850054 0c-74.717256-43.336009-74.717256-112.075885 0-156.532653a298.869026 298.869026 0 0 1 270.850054 0z" fill="#1B2230" p-id="8129"></path><path d="M632.481576 769.587742c66.498358 37.358628 66.498358 100.49471 0 138.974097a265.619847 265.619847 0 0 1-240.589566 0c-66.498358-37.358628-66.498358-100.49471 0-138.974097a265.619847 265.619847 0 0 1 240.589566 0z" fill="#1F2737" p-id="8130"></path><path d="M617.164538 778.553812c57.905874 33.622765 57.905874 87.792776 0 121.415542a231.997081 231.997081 0 0 1-210.329076 0c-57.905874-33.622765-57.905874-87.792776 0-121.415542a232.370668 232.370668 0 0 1 210.329076 0z" fill="#232C3F" p-id="8131"></path><path d="M601.847501 787.146297c49.686976 28.766144 49.686976 74.717256 0 103.856986a198.747902 198.747902 0 0 1-179.695002 0c-49.686976-28.766144-49.686976-74.717256 0-103.856986a198.747902 198.747902 0 0 1 179.695002 0z" fill="#273246" p-id="8132"></path><path d="M586.90405 796.112368a45.577526 45.577526 0 0 1 0 86.298431 165.125137 165.125137 0 0 1-149.434513 0 45.577526 45.577526 0 0 1 0-86.298431 165.125137 165.125137 0 0 1 149.434513 0z" fill="#2B374D" p-id="8133"></path><path d="M571.587012 804.704852a37.358628 37.358628 0 0 1 0 68.739876 131.502371 131.502371 0 0 1-119.174024 0 37.358628 37.358628 0 0 1 0-68.739876 131.502371 131.502371 0 0 1 119.174024 0z" fill="#2F3C54" p-id="8134"></path><path d="M556.269974 813.670923a26.898212 26.898212 0 0 1 0 51.181321 97.879606 97.879606 0 0 1-88.913535 0 26.898212 26.898212 0 0 1 0-51.181321 97.879606 97.879606 0 0 1 88.913535 0z" fill="#34415C" p-id="8135"></path><path d="M541.326523 821.889821a17.932142 17.932142 0 0 1 0 33.622766 64.630427 64.630427 0 0 1-58.27946 0 17.932142 17.932142 0 0 1 0-33.622766 64.630427 64.630427 0 0 1 58.27946 0z" fill="#384763" p-id="8136"></path><path d="M594.375775 178.574243v15.690624l10.08683 5.97738 11.207588-6.350966a15.317038 15.317038 0 0 1 15.690624 0l5.230208 2.98869a6.724553 6.724553 0 0 1 3.362277 5.97738v371.718351l-224.15177 130.008027-3.362276 1.867931a50.434148 50.434148 0 0 1-9.713244 4.109449H342.578621l-2.98869-1.867931-3.362277-5.230208v-1.867932l-1.867931-2.241517v-4.483036a20.547246 20.547246 0 0 1 0-7.471725V318.295513a21.294418 21.294418 0 0 1 9.713243-14.569865l37.358628-21.668005 189.781832-109.460781a15.317038 15.317038 0 0 1 15.690624 0l5.230208 2.988691a6.724553 6.724553 0 0 1 3.362276 5.97738z" fill="#3D566E" p-id="8137"></path><path d="M366.114557 314.186063l112.075884-64.630426 112.075885-65.3776v24.656695l-206.9668 119.54761a22.788763 22.788763 0 0 1-22.415177 0 7.098139 7.098139 0 0 1 0-12.328347z" fill="#3D566E" p-id="8138"></path><path d="M461.752645 309.329442L410.944911 338.095586l-3.362277 1.867931-4.109449 1.867931a74.717256 74.717256 0 0 1-60.894564-1.867931c-16.437796-9.339657-18.679314-26.15104-4.109449-37.358628l37.358628-21.668005 189.781832-109.46078a15.317038 15.317038 0 0 1 15.690623 0l5.230208 2.98869a6.724553 6.724553 0 0 1 0 11.581175l-112.075884 65.377599-112.075885 64.630427a7.098139 7.098139 0 0 0 0 12.328347 22.788763 22.788763 0 0 0 22.415177 0l228.261218-131.875957a15.317038 15.317038 0 0 1 15.690624 0l5.230208 2.98869a6.724553 6.724553 0 0 1 0 11.581175z" fill="#2C3E50" p-id="8139"></path><path d="M604.462605 199.868661l-10.08683-5.97738-229.755563 132.996716a22.415177 22.415177 0 0 0 22.415177 0z" fill="#EBEBEB" p-id="8140"></path><path d="M660.874134 217.05363v15.690624l10.086829 5.97738 11.207589-6.350966a15.317038 15.317038 0 0 1 15.690623 0l5.230208 2.98869a6.724553 6.724553 0 0 1 3.362277 5.97738v371.344765l-224.151769 130.008026-3.362277 1.867932a49.313389 49.313389 0 0 1-9.713243 4.109449H420.284568L410.944911 747.172565l-2.988691-1.867932-2.615104-1.867931-2.241517-2.241518-1.867932-2.241517v-4.483036a20.547246 20.547246 0 0 1 0-7.471725V356.7749a21.294418 21.294418 0 0 1 9.713244-14.569865l37.358628-21.668005 186.793141-112.449471a15.317038 15.317038 0 0 1 15.690624 0l5.230208 2.988691a6.724553 6.724553 0 0 1 3.362276 5.97738z" fill="#FAC13C" p-id="8141"></path><path d="M432.612915 352.665451l112.075885-64.630427L657.511857 224.151769v24.656695l-206.9668 119.54761a22.788763 22.788763 0 0 1-22.415177 0 7.098139 7.098139 0 0 1 0-12.328347z" fill="#FAC13C" p-id="8142"></path><path d="M528.62459 347.808829l-50.060562 28.766144-3.362277 1.867931-4.109449 1.867931a74.717256 74.717256 0 0 1-60.147391-1.867931c-16.437796-9.339657-18.679314-26.15104-4.109449-37.358628l37.358628-21.668005L635.09668 208.087559a15.317038 15.317038 0 0 1 15.690624 0l5.230208 2.988691a6.724553 6.724553 0 0 1 0 11.581174l-112.075885 65.3776-112.075885 64.630427a7.098139 7.098139 0 0 0 0 12.328347 22.788763 22.788763 0 0 0 22.415177 0l228.261219-131.875958a15.317038 15.317038 0 0 1 15.690624 0l5.230208 2.98869a6.724553 6.724553 0 0 1 0 11.581175z" fill="#F0B11D" p-id="8143"></path><path d="M672.455308 238.721634l-10.086829-5.97738-231.249909 132.62313a22.415177 22.415177 0 0 0 22.415177 0z" fill="#EBEBEB" p-id="8144"></path><path d="M350.050347 382.552353v221.910252s0 2.241518-2.615104 0h-2.988691a5.977381 5.977381 0 0 1-2.615104-4.483035v-222.283839s0-2.241518 2.615104 0h2.988691a5.977381 5.977381 0 0 1 2.615104 4.856622zM428.12988 537.217074v-109.087194a5.977381 5.977381 0 0 0-2.615104-4.483036H419.910981v109.087195a5.977381 5.977381 0 0 0 2.615104 4.483035h2.988691s2.615104 1.494345 2.615104 0zM413.560015 566.73039v-147.192995a5.977381 5.977381 0 0 0-2.615104-4.856622H405.341116V560.379424a5.977381 5.977381 0 0 0 2.615104 4.483035H410.944911s2.615104 3.735863 2.615104 1.867931z" fill="#E6EAEB" p-id="8145"></path><path d="M727.372492 256.653776v15.690624l10.086829 5.97738 11.207589-6.350966a15.317038 15.317038 0 0 1 15.690624 0l5.230208 2.98869a6.724553 6.724553 0 0 1 3.362276 5.97738v371.718351l-224.151769 130.008027-7.09814 1.867931a50.807734 50.807734 0 0 1-9.713243 4.109449H476.696096l-4.109449-4.109449-2.615104-1.867931-2.241517-2.241518-1.867932-2.241518v-4.483035a20.547246 20.547246 0 0 1 0-7.471726V396.001459a21.294418 21.294418 0 0 1 9.713243-14.569865l37.358629-21.668004 189.781831-109.460781a15.317038 15.317038 0 0 1 15.690624 0l5.230208 2.98869a6.724553 6.724553 0 0 1 3.362277 5.977381z" fill="#E74C3C" p-id="8146"></path><path d="M499.48486 391.518424l112.075884-64.630427 112.075885-65.377599v24.656694l-206.9668 119.547611a22.788763 22.788763 0 0 1-22.415177 0 7.098139 7.098139 0 0 1 0-12.328348z" fill="#E74C3C" p-id="8147"></path><path d="M595.122948 386.288216l-50.060562 29.13973-3.362277 1.867931-4.109449 1.867932a74.717256 74.717256 0 0 1-58.653046-3.362277c-16.437796-9.339657-18.679314-26.15104-4.109449-37.358628l37.358628-21.668004 191.276177-110.207954a15.317038 15.317038 0 0 1 15.690624 0l5.230208 2.988691a6.724553 6.724553 0 0 1 0 11.581174l-112.075885 65.3776-112.075885 64.630427a7.098139 7.098139 0 0 0 0 12.328347 22.788763 22.788763 0 0 0 22.415177 0l228.261219-131.875958a15.317038 15.317038 0 0 1 15.690623 0l5.230208 2.988691a6.724553 6.724553 0 0 1 0 11.581174z" fill="#9E3636" p-id="8148"></path><path d="M737.832908 277.201022l-10.08683-5.977381-229.755564 132.62313a22.415177 22.415177 0 0 0 22.415177 0z" fill="#EBEBEB" p-id="8149"></path><path d="M483.420649 459.884714v261.510397s0 2.241518-2.615104 0h-2.98869a5.977381 5.977381 0 0 1-2.615104-4.483035v-261.510398s0-2.241518 2.615104 0h2.98869a5.977381 5.977381 0 0 1 2.615104 4.483036z" fill="#E6EAEB" p-id="8150"></path><path d="M772.950018 283.551988V649.666545l-0.373586 0.747173-0.373586 0.747172-0.373587 0.747173-0.747172 0.747172-0.747173 0.373587-0.747172 0.747172-224.898942 129.63444v-367.982488l228.261218-131.875958z" fill="#F2513F" p-id="8151"></path></svg>