<?xml version="1.0" standalone="no"?><!DOCTYPE svg PUBLIC "-//W3C//DTD SVG 1.1//EN" "http://www.w3.org/Graphics/SVG/1.1/DTD/svg11.dtd"><svg t="1645256531000" class="icon" viewBox="0 0 1098 1024" version="1.1" xmlns="http://www.w3.org/2000/svg" p-id="950" width="68.625" height="64" xmlns:xlink="http://www.w3.org/1999/xlink"><defs><style type="text/css"></style></defs><path d="M1055.634535 325.180573m-42.592279 0a42.592279 42.592279 0 1 0 85.184558 0 42.592279 42.592279 0 1 0-85.184558 0Z" fill="#1296db" p-id="951"></path><path d="M291.268906 48.968369m-22.698879 0a22.698879 22.698879 0 1 0 45.397759 0 22.698879 22.698879 0 1 0-45.397759 0Z" fill="#1296db" p-id="952"></path><path d="M334.371273 726.109091m-297.89091 0a297.890909 297.890909 0 1 0 595.781819 0 297.890909 297.890909 0 1 0-595.781819 0Z" fill="#1296db" p-id="953"></path><path d="M590.17999 995.180075a57.384807 57.384807 0 0 1-14.792528-1.785305c-24.739228-6.631133-43.102366-28.309838-52.538979-62.740723l-34.940971-123.696139c-22.698879 8.161395-46.162889 15.302615-69.626899 21.168618a28.309838 28.309838 0 0 1-30.605231-11.732005 706.215691 706.215691 0 0 0-208.625654-208.880698 28.054795 28.054795 0 0 1-11.987048-30.60523 688.617684 688.617684 0 0 1 21.423661-69.881943l-123.951183-34.685928c-34.430884-9.691656-56.109589-27.799751-62.740722-52.538979s5.100872-55.344458 35.451058-85.949688L178.539641 192.557908a28.564882 28.564882 0 0 1 19.128269-8.416439l221.377833-6.631133C572.326939 49.478456 766.415108-12.752179 966.879367 2.295392a28.054795 28.054795 0 0 1 26.014446 26.014446c15.047572 200.719303-47.183064 395.062516-175.469988 548.343711l-6.631133 220.867746a27.289664 27.289664 0 0 1-8.161395 18.873226l-141.54919 141.54919c-24.739228 24.739228-48.458281 37.236364-70.902117 37.236364z m-55.089415-228.26401c5.355915 18.873225 33.665753 119.105355 41.827148 148.690411 4.590785 16.067746 10.711831 22.698879 12.75218 23.208966s12.752179-1.785305 31.625404-20.65853l133.387796-133.64284 6.886177-219.847571a27.544707 27.544707 0 0 1 9.436613-20.148444 705.195517 705.195517 0 0 0 167.053549-487.643337c-180.060772-7.14122-352.980324 52.283935-489.683686 169.603985a27.289664 27.289664 0 0 1-6.37609 4.080697 26.269489 26.269489 0 0 1-12.242092 3.060523l-219.082441 6.631134-133.642839 133.387795c-18.873225 18.873225-21.423661 29.585056-20.658531 31.625405s7.14122 8.161395 23.208967 12.752179l151.750934 42.847323 4.845828 1.530261a28.054795 28.054795 0 0 1 15.557658 36.471233 718.457783 718.457783 0 0 0-24.994271 72.687422 749.828144 749.828144 0 0 1 107.37335 89.265256 768.956413 768.956413 0 0 1 89.520299 107.37335 664.643587 664.643587 0 0 0 72.942466-24.994272 28.054795 28.054795 0 0 1 36.726276 15.557659 29.585056 29.585056 0 0 1 1.785305 8.161395zM182.365295 883.981071c-14.282441 0-28.819925-0.510087-43.35741-1.785305a28.054795 28.054795 0 0 1-26.014446-25.759402 579.714072 579.714072 0 0 1 16.067746-185.161644 28.309838 28.309838 0 0 1 42.592279-16.577833 592.721295 592.721295 0 0 1 93.345953 75.492901 565.176588 565.176588 0 0 1 75.492902 93.345953 28.054795 28.054795 0 0 1 2.805479 25.759402 27.544707 27.544707 0 0 1-19.383313 16.832877 563.646326 563.646326 0 0 1-141.54919 17.853051z m-14.537484-56.619676a499.88543 499.88543 0 0 0 101.507347-7.141221A551.659278 551.659278 0 0 0 225.212617 770.231631a513.912827 513.912827 0 0 0-50.243586-44.12254 538.141968 538.141968 0 0 0-7.14122 101.252304z m633.528269-549.108842a84.674471 84.674471 0 0 1-59.6802-24.739228 84.674471 84.674471 0 0 1 0-119.615442 84.929514 84.929514 0 0 1 119.615442 0 84.674471 84.674471 0 0 1-59.935242 144.35467z m0-112.729265a28.819925 28.819925 0 0 0-19.8934 8.161394 28.054795 28.054795 0 0 0-8.161395 19.8934 27.544707 27.544707 0 0 0 8.161395 19.8934 28.564882 28.564882 0 0 0 39.786799 0 28.054795 28.054795 0 0 0-19.893399-47.948194z" fill="#1296db" p-id="954"></path></svg>